<svg height="73" viewBox="0 0 73 73" width="73" xmlns="http://www.w3.org/2000/svg"><g fill="none" fill-rule="nonzero"><rect fill="#fff" height="71" rx="14" stroke="#000" stroke-width="2" width="71" x="1" y="1"/><path d="m45.2795695.24654967c-8.3272053 0-13.8380397 6.80844371-18.6998741 12.81667553-4.1538345 5.1326092-8.0763577 9.9792053-12.8537947 9.9792053-4.96576825 0-8.01462255-5.1036954-8.01462255-8.7624769 0-3.3923046 3.34463576-8.32212579 8.58664905-8.32212579 5.0865033 0 7.7364238 4.07099999 7.8700529 4.27964899.8240464 1.3335563 2.5737285 1.7531987 3.9139272.9357947 1.346841-.8205298 1.7735165-2.57763574.952596-3.9244768-.1742649-.28523179-4.3632649-7.0018543-12.7365761-7.0018543-8.42566892 0-14.2979272 7.39649006-14.2979272 14.033404 0 6.8459536 5.63703974 14.4737549 13.7255099 14.4737549 7.5015961 0 12.4798676-6.1500662 17.2932517-12.0981258 4.4527417-5.5006755 8.6589338-10.69775496 14.2608079-10.69775496 3.3329139 0 5.5229471 1.13076821 6.6935696 3.45403974 1.0143311 2.01615892 1.0135496 4.29762252 1.0127682 5.08806622 0 .453245-.2395166 2.7265033-1.348404 4.7735298-1.2643973 2.3318676-3.059404 3.4173113-5.6534503 3.4173113-5.223649 0-8.0458808-3.3954305-9.1086623-4.6742848-.276245-.3329007-.4751258-.5724172-.7408212-.7998212-1.1964106-1.0248808-3.0000132-.8873444-4.0268476.3106291-.990106 1.1553841-.8947683 2.8730265.1867682 3.912755.0515761.0586093.113702.1355828.1875496.2250596 1.3851325 1.6668477 5.5967947 6.736159 13.5008411 6.736159 9.6064503 0 12.7131324-9.3669338 12.7131324-13.9404106.0007815-2.9128808-.5446755-5.47527819-1.623086-7.61764243-1.5140729-3.00860927-4.7899404-6.5970596-11.7933577-6.5970596z" fill="#000" transform="translate(7 22)"/></g></svg>